# xmcd
#
# Track frame offsets: 
#        150
#        18200
#        42172
#        60425
#
# Disc length: 1043 seconds
#
# Revision: 2
# Processed by: cddbd v1.5.2PL0 Copyright (c) Steve Scherf et al.
# Submitted via: ExactAudioCopy v1.0b3
#
DISCID=24041104
DTITLE=The Boyz - One Minute
DYEAR=1997
DGENRE=Rap
TTITLE0=One Minute (Single Cut)
TTITLE1=One Minute (Extended Version)
TTITLE2=One Minute (Club Version)
TTITLE3=One Minute (Instrumental Version)
EXTD=YEAR: 1997 ID3G: 13
EXTT0=
EXTT1=
EXTT2=
EXTT3=
PLAYORDER=
